<?xml version="1.0" encoding="utf-8"?>
<!-- Generator: Adobe Illustrator 22.0.1, SVG Export Plug-In . SVG Version: 6.00 Build 0)  -->
<svg version="1.1" id="Layer_1" xmlns="http://www.w3.org/2000/svg"  x="0px" y="0px"
	 viewBox="0 0 200 270" style="enable-background:new 0 0 200 270;" xml:space="preserve">
<style type="text/css">
	.st0{fill:#333333;}
	.st1{fill-rule:evenodd;clip-rule:evenodd;fill:url(#SVGID_1_);}
	.st2{fill-rule:evenodd;clip-rule:evenodd;fill:#458AC8;}
	.st3{fill-rule:evenodd;clip-rule:evenodd;fill:#078290;}
	.st4{fill-rule:evenodd;clip-rule:evenodd;fill:#46E191;}
	.st5{fill-rule:evenodd;clip-rule:evenodd;fill:#2B56AA;}
	.st6{fill-rule:evenodd;clip-rule:evenodd;fill:url(#SVGID_2_);}
	.st7{fill-rule:evenodd;clip-rule:evenodd;fill:url(#SVGID_3_);}
	.st8{fill-rule:evenodd;clip-rule:evenodd;fill:url(#SVGID_4_);}
	.st9{fill-rule:evenodd;clip-rule:evenodd;fill:url(#SVGID_5_);}
	.st10{fill-rule:evenodd;clip-rule:evenodd;fill:#2BBC33;}
	.st11{fill-rule:evenodd;clip-rule:evenodd;fill:url(#SVGID_6_);}
</style>
<path class="st0" d="M20.9,230.5c0-0.4,0.2-0.6,0.6-0.6h9.7c0.4,0,0.6-0.2,0.6-0.6v-6.6c0-0.4-0.2-0.6-0.6-0.6H1.9
	c-0.4,0-0.6,0.2-0.6,0.6v6.6c0,0.4,0.2,0.6,0.6,0.6h9.7c0.4,0,0.6,0.2,0.6,0.6v33.8c0,0.4,0.2,0.6,0.6,0.6h7.5
	c0.4,0,0.6-0.2,0.6-0.6V230.5L20.9,230.5z M51.9,243.9c0,2.3,0,4.4,0.1,6.1c0,1.7,0.2,3.1,0.4,4.2c0.3,1.6,0.7,2.9,1,4.2
	c0.4,1.2,0.8,2.2,1.4,3c0.8,1,1.8,1.9,3,2.7c1.2,0.8,2.5,1.3,3.8,1.6c1,0.2,2.2,0.3,3.8,0.4c1.6,0,3.4,0.1,5.5,0.1
	c2.1,0,4,0,5.5-0.1c1.6,0,2.8-0.2,3.8-0.4c1.4-0.3,2.6-0.9,3.8-1.6c1.2-0.8,2.2-1.7,3-2.7c0.6-0.8,1.1-1.8,1.4-3
	c0.4-1.2,0.7-2.6,1-4.2c0.2-1.1,0.3-2.5,0.4-4.2c0-1.7,0.1-3.7,0.1-6.1v-0.4c0-2.3,0-4.4-0.1-6.1c0-1.7-0.2-3.1-0.4-4.2
	c-0.3-1.6-0.7-2.9-1-4.2c-0.4-1.2-0.8-2.2-1.4-3c-0.8-1-1.8-1.9-3-2.7c-1.2-0.8-2.5-1.3-3.8-1.6c-1-0.2-2.2-0.3-3.8-0.4
	c-1.6,0-3.4-0.1-5.5-0.1c-2.1,0-4,0-5.5,0.1c-1.6,0-2.8,0.2-3.8,0.4c-1.4,0.3-2.6,0.9-3.8,1.6c-1.2,0.8-2.2,1.7-3,2.7
	c-0.6,0.8-1.1,1.8-1.4,3c-0.4,1.2-0.7,2.6-1,4.2c-0.2,1.1-0.3,2.5-0.4,4.2c0,1.7-0.1,3.7-0.1,6.1V243.9L51.9,243.9z M70.8,229.5
	c1.2,0,2.4,0,3.5,0.1c1.1,0.1,2.1,0.2,2.9,0.4c1.4,0.4,2.4,1.1,3,2.1c0.6,1.1,0.9,2.6,0.9,4.7v13.7c0,2.1-0.3,3.7-0.9,4.7
	c-0.6,1.1-1.6,1.8-3,2.1c-0.8,0.2-1.7,0.3-2.9,0.4c-1.1,0.1-2.3,0.1-3.5,0.1c-1.2,0-2.4,0-3.5-0.1c-1.1-0.1-2.1-0.2-2.9-0.4
	c-1.4-0.4-2.4-1.1-3-2.1c-0.6-1.1-0.9-2.6-0.9-4.7v-13.7c0-2.1,0.3-3.7,0.9-4.7c0.6-1.1,1.6-1.8,3-2.1c0.8-0.2,1.7-0.3,2.9-0.4
	C68.4,229.5,69.6,229.5,70.8,229.5L70.8,229.5z M140.8,222.2h-9.1c-0.2,0-0.3,0.1-0.4,0.2c-0.1,0.1-0.1,0.2-0.2,0.3l-9,16.3
	c-0.4,0.8-0.7,1.4-1,1.8c-0.2,0.5-0.4,0.9-0.5,1.2c-0.1,0.3-0.2,0.6-0.2,0.8c0,0.2-0.1,0.3-0.1,0.5c0,0.9,0.6,2.4,1.8,4.5l9.4,16.7
	c0,0.1,0.1,0.2,0.2,0.3c0.1,0.1,0.2,0.2,0.4,0.2h9.1c0.1,0,0.2-0.1,0.3-0.2c0.1-0.1,0-0.3-0.1-0.6l-11.6-19.8
	c-0.1-0.1-0.2-0.3-0.3-0.6c-0.1-0.3-0.2-0.5-0.2-0.6c0-0.1,0.1-0.3,0.3-0.6c0.2-0.3,0.3-0.5,0.4-0.6l11.1-19
	c0.2-0.3,0.2-0.5,0.1-0.6C141,222.2,140.9,222.2,140.8,222.2L140.8,222.2z M111.2,222.8v41.6c0,0.4,0.2,0.6,0.6,0.6h7.5
	c0.4,0,0.6-0.2,0.6-0.6v-41.6c0-0.4-0.2-0.6-0.6-0.6h-7.5C111.4,222.2,111.2,222.4,111.2,222.8L111.2,222.8z M186.4,222.8v29
	c0,0.5-0.1,1.1-0.3,1.7c-0.2,0.6-0.5,1.2-0.9,1.7c-0.4,0.5-0.8,1-1.4,1.4c-0.6,0.4-1.2,0.6-1.8,0.6h-6.3c-0.7,0-1.3-0.2-1.9-0.6
	c-0.5-0.4-1-0.8-1.3-1.4c-0.4-0.5-0.6-1.1-0.8-1.7c-0.2-0.6-0.3-1.2-0.3-1.6v-29.1c0-0.4-0.2-0.6-0.6-0.6h-7.5
	c-0.4,0-0.6,0.2-0.6,0.6v30.6c0,1.1,0.1,2.2,0.4,3.1c0.3,1,0.7,1.9,1.2,2.8c0.5,0.8,1.2,1.6,1.9,2.3c0.6,0.6,1.3,1.2,2.1,1.7
	c0.8,0.5,1.8,0.9,2.9,1.2c1.1,0.3,2.4,0.4,3.7,0.4h7c1,0,2-0.1,2.9-0.3c0.9-0.2,1.7-0.4,2.4-0.6c0.7-0.3,1.5-0.6,2.3-1
	c0.8-0.4,1.5-0.9,2.1-1.5c0.6-0.6,1.1-1.2,1.5-1.9c0.5-0.7,0.8-1.4,1-2c0.3-0.7,0.5-1.6,0.7-2.7c0.2-1.1,0.2-2.4,0.2-3.8v-28.3
	c0-0.4-0.2-0.6-0.6-0.6H187C186.6,222.2,186.4,222.4,186.4,222.8z"/>
<g>
	<linearGradient id="SVGID_1_" gradientUnits="userSpaceOnUse" x1="-29.9456" y1="149.8535" x2="66.0618" y2="35.4363">
		<stop  offset="0" style="stop-color:#3688C8"/>
		<stop  offset="0.4" style="stop-color:#3387C4"/>
		<stop  offset="0.73" style="stop-color:#008543"/>
		<stop  offset="1" style="stop-color:#008443"/>
	</linearGradient>
	<path class="st1" d="M7.6,111.9l-0.4-12l15.5-46.2l10.6,15.2l-13.8,43.6c-0.6,2-1.3,5.4,0.9,6.9l-7,12.3L7.6,111.9z"/>
	<path class="st2" d="M44.2,43.3c0.1-4.2,4.7-11.9,2.3-15.2c-1.1-0.3-1.2-5-0.2-6.4L45.5,4L31.2,21.6l-0.3,6.4L44.2,43.3z"/>
	<path class="st3" d="M78.4,179.7l-65.3-48.3C2,123.2,2.6,113.3,7.6,98.6C7.1,112.4,14,115,20.2,119.2L98,172.5
		c3.8,2.5,5.6,2.7,7.8,1.1l2.9-2.1l6.4,12.7c-5,2.6-7.8,2.5-13.7,2.5c-1.1,0-2.1,0-3,0C89.4,186.6,88,184.9,78.4,179.7z"/>
	<path class="st4" d="M194.4,110.2l-6.3,18.1l-7.2,8.6l-59.1,42.8l-4.3,3.2c-13.7,9.9-29.5,3.8-41.4-4.9c13.3,9.9,24.6-0.5,28.4-3.2
		l72.7-52.1c3.7-2.7,7.5-5.2,6.3-9.1L194.4,110.2z"/>
	<path class="st5" d="M84.1,147.1c4.7-0.7,9.4-0.6,14.2-1.3c0.2,0.8,1,1.3,2,1.3l3,0c0.7,0,1.6-0.3,2-1.1l18.2,1.2l-19.4,13.4
		l-0.9,0.2l-2.6,0l-0.5-0.2L84.1,147.1z"/>
	<linearGradient id="SVGID_2_" gradientUnits="userSpaceOnUse" x1="90.6195" y1="189.2355" x2="90.6195" y2="34.9727">
		<stop  offset="0" style="stop-color:#2A58A8"/>
		<stop  offset="0.81" style="stop-color:#43B649"/>
		<stop  offset="1" style="stop-color:#25B34B"/>
	</linearGradient>
	<path class="st6" d="M80.8,61l17.6-0.2l-0.2,90.3c0,5.2,0.4,7.9,2.7,9.8l-1.1,0c-5.4,0-19.6-3.5-19.5-19.3L80.8,61z"/>
	<linearGradient id="SVGID_3_" gradientUnits="userSpaceOnUse" x1="113.0149" y1="179.3624" x2="113.0149" y2="43.6985">
		<stop  offset="0" style="stop-color:#0077A0"/>
		<stop  offset="0.38" style="stop-color:#00A65B"/>
		<stop  offset="0.78" style="stop-color:#2CB34A"/>
		<stop  offset="1" style="stop-color:#39B54A"/>
	</linearGradient>
	<path class="st7" d="M123.2,64.9l-18.1,7.9v79.4c0,3.6,0.6,7-2.5,8.7l1.6,0c11.7-0.2,19.1-8.2,19.1-15.7L123.2,64.9z"/>
	<linearGradient id="SVGID_4_" gradientUnits="userSpaceOnUse" x1="-161.891" y1="43.8379" x2="225.376" y2="43.8379">
		<stop  offset="0" style="stop-color:#005F33"/>
		<stop  offset="0.48" style="stop-color:#008D45"/>
		<stop  offset="0.81" style="stop-color:#25B34B"/>
		<stop  offset="1" style="stop-color:#2CB34A"/>
	</linearGradient>
	<path class="st8" d="M80.8,61.3l17.6-0.2l0-33.2l-62.7,0.1c-1.6,0-3.7,0.1-4.7-1.7c-1.2,7.2,6.8,16.9,14.7,16.9l35.2,0L80.8,61.3z"
		/>
	<linearGradient id="SVGID_5_" gradientUnits="userSpaceOnUse" x1="26.9146" y1="13.9161" x2="136.4818" y2="13.9161">
		<stop  offset="0" style="stop-color:#005F33"/>
		<stop  offset="1" style="stop-color:#43B649"/>
	</linearGradient>
	<path class="st9" d="M132,3.9l-8.7,17.5l-85.5,0.2c-3.8-0.1-5.2,0.3-6.7,2.3C31.3,11.1,42.5,4.2,48.5,4.2L132,3.9z"/>
	<polygon class="st10" points="123.1,59.9 105.2,68.1 105.2,51.8 123.1,43.2 	"/>
	<path class="st2" d="M149.9,3.9l18.6,17.8l24,74.2l1.7,5.1c5.5,16.1-3.4,30.4-16.8,38.4c13.4-9.8,6.6-24,5.2-28.5l-25-82.1
		c-0.9-2.9-1.6-5.8-6.1-7.1L149.9,3.9z"/>
	<linearGradient id="SVGID_6_" gradientUnits="userSpaceOnUse" x1="175.5409" y1="15.3382" x2="63.5249" y2="15.3382">
		<stop  offset="0" style="stop-color:#005F33"/>
		<stop  offset="1" style="stop-color:#43B649"/>
	</linearGradient>
	<path class="st11" d="M73.7,3.9l8.7,17.5l72.2,0.2c4.6,0,10.6,0.4,15.4,5.2c-2.6-10.7-7.5-22.8-23-22.8L73.7,3.9z"/>
</g>
</svg>
